<svg xmlns="http://www.w3.org/2000/svg" width="53" height="53" fill="none"><g filter="url(#a)"><circle cx="26.5" cy="22.5" r="16.5" fill="#FCFFFE"/><circle cx="26.5" cy="22.5" r="16" stroke="#FCFFFE"/></g><path fill="#00B488" d="M26.5 13c-5.225 0-9.5 4.275-9.5 9.5s4.275 9.5 9.5 9.5 9.5-4.275 9.5-9.5-4.275-9.5-9.5-9.5Zm-3.012 4.797c.931 0 1.682.751 1.682 1.691 0 .931-.75 1.682-1.682 1.682a1.68 1.68 0 0 1-1.69-1.682c0-.94.75-1.69 1.69-1.69Zm6.071 9.453c-.931 0-1.681-.76-1.681-1.691s.75-1.681 1.681-1.681 1.691.75 1.691 1.681-.76 1.691-1.691 1.691Zm-6.384.029-1.425-1.425 8.104-8.104 1.425 1.425-8.104 8.104Z"/><defs><filter id="a" width="53" height="53" x="0" y="0" color-interpolation-filters="sRGB" filterUnits="userSpaceOnUse"><feFlood flood-opacity="0" result="BackgroundImageFix"/><feColorMatrix in="SourceAlpha" result="hardAlpha" values="0 0 0 0 0 0 0 0 0 0 0 0 0 0 0 0 0 0 127 0"/><feOffset dy="4"/><feGaussianBlur stdDeviation="5"/><feComposite in2="hardAlpha" operator="out"/><feColorMatrix values="0 0 0 0 0.15 0 0 0 0 0.1475 0 0 0 0 0.1475 0 0 0 0.07 0"/><feBlend in2="BackgroundImageFix" result="effect1_dropShadow_1_172"/><feBlend in="SourceGraphic" in2="effect1_dropShadow_1_172" result="shape"/><feColorMatrix in="SourceAlpha" result="hardAlpha" values="0 0 0 0 0 0 0 0 0 0 0 0 0 0 0 0 0 0 127 0"/><feOffset dy="2"/><feGaussianBlur stdDeviation="2"/><feComposite in2="hardAlpha" k2="-1" k3="1" operator="arithmetic"/><feColorMatrix values="0 0 0 0 0 0 0 0 0 0 0 0 0 0 0 0 0 0 0.05 0"/><feBlend in2="shape" result="effect2_innerShadow_1_172"/></filter></defs></svg>