<svg xmlns="http://www.w3.org/2000/svg" width="53" height="53" fill="none"><g filter="url(#a)"><circle cx="26.5" cy="22.5" r="16.5" fill="#FCFFFE"/><circle cx="26.5" cy="22.5" r="16" stroke="#FCFFFE"/></g><path fill="#00B488" d="M27 22c-1.028 0-2.022-.47-2.8-1.321-.756-.831-1.218-1.94-1.3-3.12-.086-1.259.289-2.416 1.058-3.26C24.726 13.455 25.8 13 27 13c1.192 0 2.27.463 3.035 1.305.774.85 1.15 2.006 1.063 3.254-.083 1.182-.545 2.29-1.3 3.12C29.022 21.53 28.028 22 27 22Zm6.591 9H20.41a1.36 1.36 0 0 1-.612-.142 1.392 1.392 0 0 1-.488-.404 1.562 1.562 0 0 1-.263-1.318c.42-1.73 1.464-3.163 3.016-4.147 1.377-.872 3.13-1.353 4.937-1.353 1.843 0 3.55.46 4.936 1.332 1.555.979 2.6 2.42 3.018 4.17a1.583 1.583 0 0 1-.266 1.319 1.39 1.39 0 0 1-.486.402 1.36 1.36 0 0 1-.61.141Z"/><defs><filter id="a" width="53" height="53" x="0" y="0" color-interpolation-filters="sRGB" filterUnits="userSpaceOnUse"><feFlood flood-opacity="0" result="BackgroundImageFix"/><feColorMatrix in="SourceAlpha" result="hardAlpha" values="0 0 0 0 0 0 0 0 0 0 0 0 0 0 0 0 0 0 127 0"/><feOffset dy="4"/><feGaussianBlur stdDeviation="5"/><feComposite in2="hardAlpha" operator="out"/><feColorMatrix values="0 0 0 0 0.15 0 0 0 0 0.1475 0 0 0 0 0.1475 0 0 0 0.07 0"/><feBlend in2="BackgroundImageFix" result="effect1_dropShadow_1_154"/><feBlend in="SourceGraphic" in2="effect1_dropShadow_1_154" result="shape"/><feColorMatrix in="SourceAlpha" result="hardAlpha" values="0 0 0 0 0 0 0 0 0 0 0 0 0 0 0 0 0 0 127 0"/><feOffset dy="2"/><feGaussianBlur stdDeviation="2"/><feComposite in2="hardAlpha" k2="-1" k3="1" operator="arithmetic"/><feColorMatrix values="0 0 0 0 0 0 0 0 0 0 0 0 0 0 0 0 0 0 0.05 0"/><feBlend in2="shape" result="effect2_innerShadow_1_154"/></filter></defs></svg>