<svg xmlns="http://www.w3.org/2000/svg" width="53" height="53" fill="none"><g filter="url(#a)"><circle cx="26.5" cy="22.5" r="16.5" fill="#FCFFFE"/><circle cx="26.5" cy="22.5" r="16" stroke="#FCFFFE"/></g><path fill="#00B488" d="M28.389 23.025a2.348 2.348 0 0 0 1.67-.696 2.377 2.377 0 0 0 .691-1.679c0-.63-.249-1.234-.692-1.68a2.354 2.354 0 0 0-3.339 0 2.382 2.382 0 0 0 0 3.36 2.354 2.354 0 0 0 1.67.695Zm0-9.025C32.034 14 35 16.974 35 20.65 35 25.638 28.389 33 28.389 33s-6.611-7.363-6.611-12.35a6.67 6.67 0 0 1 1.936-4.702A6.592 6.592 0 0 1 28.39 14Zm-8.5 6.65c0 4.275 4.798 10.127 5.667 11.22L24.61 33S18 25.637 18 20.65a6.65 6.65 0 0 1 4.722-6.374 8.554 8.554 0 0 0-2.833 6.374Z"/><defs><filter id="a" width="53" height="53" x="0" y="0" color-interpolation-filters="sRGB" filterUnits="userSpaceOnUse"><feFlood flood-opacity="0" result="BackgroundImageFix"/><feColorMatrix in="SourceAlpha" result="hardAlpha" values="0 0 0 0 0 0 0 0 0 0 0 0 0 0 0 0 0 0 127 0"/><feOffset dy="4"/><feGaussianBlur stdDeviation="5"/><feComposite in2="hardAlpha" operator="out"/><feColorMatrix values="0 0 0 0 0.15 0 0 0 0 0.1475 0 0 0 0 0.1475 0 0 0 0.07 0"/><feBlend in2="BackgroundImageFix" result="effect1_dropShadow_1_177"/><feBlend in="SourceGraphic" in2="effect1_dropShadow_1_177" result="shape"/><feColorMatrix in="SourceAlpha" result="hardAlpha" values="0 0 0 0 0 0 0 0 0 0 0 0 0 0 0 0 0 0 127 0"/><feOffset dy="2"/><feGaussianBlur stdDeviation="2"/><feComposite in2="hardAlpha" k2="-1" k3="1" operator="arithmetic"/><feColorMatrix values="0 0 0 0 0 0 0 0 0 0 0 0 0 0 0 0 0 0 0.05 0"/><feBlend in2="shape" result="effect2_innerShadow_1_177"/></filter></defs></svg>