<svg xmlns="http://www.w3.org/2000/svg" width="53" height="53" fill="none"><g filter="url(#a)"><circle cx="26.5" cy="22.5" r="16.5" fill="#FCFFFE"/><circle cx="26.5" cy="22.5" r="16" stroke="#FCFFFE"/></g><path fill="#00B488" d="M34.938 16h-6c-.412 0-.989.239-1.28.53l-7.439 7.439a.752.752 0 0 0 0 1.061l6.439 6.439a.752.752 0 0 0 1.061 0l7.439-7.439c.292-.292.53-.868.53-1.28v-6a.752.752 0 0 0-.75-.75Zm-3.75 6a1.501 1.501 0 1 1 .001-3.002A1.501 1.501 0 0 1 31.188 22Z"/><path fill="#00B488" d="m17.688 24.5 8.5-8.5h-1.25c-.412 0-.989.239-1.28.53l-7.439 7.439a.752.752 0 0 0 0 1.061l6.439 6.439a.752.752 0 0 0 1.061 0l.47-.47-6.5-6.5-.001.001Z"/><defs><filter id="a" width="53" height="53" x="0" y="0" color-interpolation-filters="sRGB" filterUnits="userSpaceOnUse"><feFlood flood-opacity="0" result="BackgroundImageFix"/><feColorMatrix in="SourceAlpha" result="hardAlpha" values="0 0 0 0 0 0 0 0 0 0 0 0 0 0 0 0 0 0 127 0"/><feOffset dy="4"/><feGaussianBlur stdDeviation="5"/><feComposite in2="hardAlpha" operator="out"/><feColorMatrix values="0 0 0 0 0.15 0 0 0 0 0.1475 0 0 0 0 0.1475 0 0 0 0.07 0"/><feBlend in2="BackgroundImageFix" result="effect1_dropShadow_1_164"/><feBlend in="SourceGraphic" in2="effect1_dropShadow_1_164" result="shape"/><feColorMatrix in="SourceAlpha" result="hardAlpha" values="0 0 0 0 0 0 0 0 0 0 0 0 0 0 0 0 0 0 127 0"/><feOffset dy="2"/><feGaussianBlur stdDeviation="2"/><feComposite in2="hardAlpha" k2="-1" k3="1" operator="arithmetic"/><feColorMatrix values="0 0 0 0 0 0 0 0 0 0 0 0 0 0 0 0 0 0 0.05 0"/><feBlend in2="shape" result="effect2_innerShadow_1_164"/></filter></defs></svg>