<svg xmlns="http://www.w3.org/2000/svg" width="53" height="53" fill="none"><g filter="url(#a)"><circle cx="26.5" cy="22.5" r="16.5" fill="#FCFFFE"/><circle cx="26.5" cy="22.5" r="16" stroke="#FCFFFE"/></g><path fill="#00B488" d="M26.2 30c0-.31-.126-.606-.351-.825a1.217 1.217 0 0 0-.849-.342c-.318 0-.623.123-.849.342A1.15 1.15 0 0 0 23.8 30h-4a.812.812 0 0 1-.566-.228.767.767 0 0 1-.234-.55V16.778c0-.206.084-.404.234-.55A.812.812 0 0 1 19.8 16h4c0 .31.126.606.351.825.226.219.53.342.849.342.318 0 .623-.123.849-.342A1.15 1.15 0 0 0 26.2 16h8c.212 0 .416.082.566.228.15.146.234.343.234.55v4.278c-.53 0-1.04.204-1.414.57C33.21 21.99 33 22.483 33 23c0 .516.21 1.01.586 1.375.375.365.884.57 1.414.57v4.277a.767.767 0 0 1-.234.55.812.812 0 0 1-.566.228h-8ZM25 21.833c.318 0 .623-.123.849-.341a1.15 1.15 0 0 0 .351-.825c0-.31-.126-.607-.351-.825A1.217 1.217 0 0 0 25 19.5c-.318 0-.623.123-.849.342a1.15 1.15 0 0 0-.351.825c0 .31.126.606.351.825.226.218.53.341.849.341Zm0 4.667c.318 0 .623-.123.849-.342a1.15 1.15 0 0 0 .351-.825c0-.31-.126-.606-.351-.825a1.217 1.217 0 0 0-.849-.341c-.318 0-.623.123-.849.341a1.15 1.15 0 0 0-.351.825c0 .31.126.607.351.825.226.22.53.342.849.342Z"/><defs><filter id="a" width="53" height="53" x="0" y="0" color-interpolation-filters="sRGB" filterUnits="userSpaceOnUse"><feFlood flood-opacity="0" result="BackgroundImageFix"/><feColorMatrix in="SourceAlpha" result="hardAlpha" values="0 0 0 0 0 0 0 0 0 0 0 0 0 0 0 0 0 0 127 0"/><feOffset dy="4"/><feGaussianBlur stdDeviation="5"/><feComposite in2="hardAlpha" operator="out"/><feColorMatrix values="0 0 0 0 0.15 0 0 0 0 0.1475 0 0 0 0 0.1475 0 0 0 0.07 0"/><feBlend in2="BackgroundImageFix" result="effect1_dropShadow_1_159"/><feBlend in="SourceGraphic" in2="effect1_dropShadow_1_159" result="shape"/><feColorMatrix in="SourceAlpha" result="hardAlpha" values="0 0 0 0 0 0 0 0 0 0 0 0 0 0 0 0 0 0 127 0"/><feOffset dy="2"/><feGaussianBlur stdDeviation="2"/><feComposite in2="hardAlpha" k2="-1" k3="1" operator="arithmetic"/><feColorMatrix values="0 0 0 0 0 0 0 0 0 0 0 0 0 0 0 0 0 0 0.05 0"/><feBlend in2="shape" result="effect2_innerShadow_1_159"/></filter></defs></svg>